<mxfile host="app.diagrams.net" modified="2024-06-17T19:16:07.603Z" agent="Mozilla/5.0 (Windows NT 10.0; Win64; x64) AppleWebKit/537.36 (KHTML, like Gecko) Chrome/126.0.0.0 Safari/537.36" etag="ps7zHMsPc3L7yZeMnA-C" version="24.5.2" type="device">
  <diagram name="Página-1" id="oZUT38D3p3UYbQFRdTSX">
    <mxGraphModel dx="794" dy="428" grid="1" gridSize="10" guides="1" tooltips="1" connect="1" arrows="1" fold="1" page="1" pageScale="1" pageWidth="827" pageHeight="1169" math="0" shadow="0">
      <root>
        <mxCell id="0" />
        <mxCell id="1" parent="0" />
        <mxCell id="BsZ0_2oqFfzsW1XxFSp0-8" style="edgeStyle=orthogonalEdgeStyle;rounded=0;orthogonalLoop=1;jettySize=auto;html=1;" parent="1" source="BsZ0_2oqFfzsW1XxFSp0-1" target="BsZ0_2oqFfzsW1XxFSp0-2" edge="1">
          <mxGeometry relative="1" as="geometry" />
        </mxCell>
        <mxCell id="BsZ0_2oqFfzsW1XxFSp0-1" value="data-set" style="rounded=0;whiteSpace=wrap;html=1;fillColor=#fff2cc;strokeColor=none;" parent="1" vertex="1">
          <mxGeometry x="240" y="220" width="80" height="40" as="geometry" />
        </mxCell>
        <mxCell id="BsZ0_2oqFfzsW1XxFSp0-10" style="edgeStyle=orthogonalEdgeStyle;rounded=0;orthogonalLoop=1;jettySize=auto;html=1;entryX=0;entryY=0.5;entryDx=0;entryDy=0;" parent="1" source="BsZ0_2oqFfzsW1XxFSp0-2" target="BsZ0_2oqFfzsW1XxFSp0-3" edge="1">
          <mxGeometry relative="1" as="geometry">
            <Array as="points">
              <mxPoint x="520" y="240" />
              <mxPoint x="520" y="165" />
            </Array>
          </mxGeometry>
        </mxCell>
        <mxCell id="BsZ0_2oqFfzsW1XxFSp0-11" style="edgeStyle=orthogonalEdgeStyle;rounded=0;orthogonalLoop=1;jettySize=auto;html=1;entryX=0;entryY=0.5;entryDx=0;entryDy=0;" parent="1" source="BsZ0_2oqFfzsW1XxFSp0-2" target="BsZ0_2oqFfzsW1XxFSp0-4" edge="1">
          <mxGeometry relative="1" as="geometry">
            <Array as="points">
              <mxPoint x="520" y="240" />
              <mxPoint x="520" y="315" />
            </Array>
          </mxGeometry>
        </mxCell>
        <mxCell id="BsZ0_2oqFfzsW1XxFSp0-2" value="data-set modificado" style="rounded=0;whiteSpace=wrap;html=1;fillColor=#fff2cc;strokeColor=none;" parent="1" vertex="1">
          <mxGeometry x="400" y="220" width="90" height="40" as="geometry" />
        </mxCell>
        <mxCell id="BsZ0_2oqFfzsW1XxFSp0-12" style="edgeStyle=orthogonalEdgeStyle;rounded=0;orthogonalLoop=1;jettySize=auto;html=1;" parent="1" source="BsZ0_2oqFfzsW1XxFSp0-3" target="BsZ0_2oqFfzsW1XxFSp0-7" edge="1">
          <mxGeometry relative="1" as="geometry" />
        </mxCell>
        <mxCell id="BsZ0_2oqFfzsW1XxFSp0-3" value="data-set modificado&lt;div&gt;para WEKA&lt;/div&gt;" style="rounded=0;whiteSpace=wrap;html=1;fillColor=#fff2cc;strokeColor=none;" parent="1" vertex="1">
          <mxGeometry x="700" y="145" width="160" height="40" as="geometry" />
        </mxCell>
        <mxCell id="BsZ0_2oqFfzsW1XxFSp0-14" style="edgeStyle=orthogonalEdgeStyle;rounded=0;orthogonalLoop=1;jettySize=auto;html=1;" parent="1" source="BsZ0_2oqFfzsW1XxFSp0-4" target="BsZ0_2oqFfzsW1XxFSp0-5" edge="1">
          <mxGeometry relative="1" as="geometry" />
        </mxCell>
        <mxCell id="BsZ0_2oqFfzsW1XxFSp0-4" value="data-set modificado&lt;div&gt;para python&lt;/div&gt;" style="rounded=0;whiteSpace=wrap;html=1;fillColor=#fff2cc;strokeColor=none;" parent="1" vertex="1">
          <mxGeometry x="570" y="295" width="160" height="40" as="geometry" />
        </mxCell>
        <mxCell id="BsZ0_2oqFfzsW1XxFSp0-17" style="edgeStyle=orthogonalEdgeStyle;rounded=0;orthogonalLoop=1;jettySize=auto;html=1;" parent="1" source="BsZ0_2oqFfzsW1XxFSp0-5" target="BsZ0_2oqFfzsW1XxFSp0-6" edge="1">
          <mxGeometry relative="1" as="geometry" />
        </mxCell>
        <mxCell id="BsZ0_2oqFfzsW1XxFSp0-5" value="entrenamiento:&lt;div&gt;inicializaciones aleatorias de pesos&lt;/div&gt;" style="rounded=0;whiteSpace=wrap;html=1;fillColor=#fff2cc;strokeColor=none;" parent="1" vertex="1">
          <mxGeometry x="767" y="295" width="160" height="40" as="geometry" />
        </mxCell>
        <mxCell id="BsZ0_2oqFfzsW1XxFSp0-29" style="edgeStyle=orthogonalEdgeStyle;rounded=0;orthogonalLoop=1;jettySize=auto;html=1;" parent="1" source="BsZ0_2oqFfzsW1XxFSp0-6" target="BsZ0_2oqFfzsW1XxFSp0-20" edge="1">
          <mxGeometry relative="1" as="geometry">
            <Array as="points">
              <mxPoint x="1340" y="315" />
            </Array>
          </mxGeometry>
        </mxCell>
        <mxCell id="BsZ0_2oqFfzsW1XxFSp0-31" style="edgeStyle=orthogonalEdgeStyle;rounded=0;orthogonalLoop=1;jettySize=auto;html=1;" parent="1" source="BsZ0_2oqFfzsW1XxFSp0-6" target="BsZ0_2oqFfzsW1XxFSp0-20" edge="1">
          <mxGeometry relative="1" as="geometry">
            <Array as="points">
              <mxPoint x="1320" y="315" />
            </Array>
          </mxGeometry>
        </mxCell>
        <mxCell id="BsZ0_2oqFfzsW1XxFSp0-6" value="entrenamiento:&lt;div&gt;inicialización con los mejores parámetros encontrados&lt;/div&gt;" style="rounded=0;whiteSpace=wrap;html=1;fillColor=#fff2cc;strokeColor=none;" parent="1" vertex="1">
          <mxGeometry x="1040" y="295" width="160" height="40" as="geometry" />
        </mxCell>
        <mxCell id="BsZ0_2oqFfzsW1XxFSp0-21" style="edgeStyle=orthogonalEdgeStyle;rounded=0;orthogonalLoop=1;jettySize=auto;html=1;" parent="1" source="BsZ0_2oqFfzsW1XxFSp0-7" target="BsZ0_2oqFfzsW1XxFSp0-20" edge="1">
          <mxGeometry relative="1" as="geometry">
            <Array as="points">
              <mxPoint x="1320" y="150" />
            </Array>
          </mxGeometry>
        </mxCell>
        <mxCell id="BsZ0_2oqFfzsW1XxFSp0-24" style="edgeStyle=orthogonalEdgeStyle;rounded=0;orthogonalLoop=1;jettySize=auto;html=1;entryX=0.75;entryY=0;entryDx=0;entryDy=0;" parent="1" source="BsZ0_2oqFfzsW1XxFSp0-7" target="BsZ0_2oqFfzsW1XxFSp0-20" edge="1">
          <mxGeometry relative="1" as="geometry">
            <Array as="points">
              <mxPoint x="1330" y="150" />
            </Array>
          </mxGeometry>
        </mxCell>
        <mxCell id="BsZ0_2oqFfzsW1XxFSp0-7" value="entrenamiento:&lt;div&gt;inicialización aleatoria&lt;/div&gt;" style="rounded=0;whiteSpace=wrap;html=1;fillColor=#fff2cc;strokeColor=none;" parent="1" vertex="1">
          <mxGeometry x="1015" y="145" width="160" height="40" as="geometry" />
        </mxCell>
        <mxCell id="BsZ0_2oqFfzsW1XxFSp0-9" value="&lt;i&gt;Preparación&lt;/i&gt;&lt;div&gt;&lt;i&gt;de datos&lt;/i&gt;&lt;/div&gt;" style="text;html=1;align=center;verticalAlign=middle;resizable=0;points=[];autosize=1;strokeColor=none;fillColor=none;" parent="1" vertex="1">
          <mxGeometry x="317" y="200" width="90" height="40" as="geometry" />
        </mxCell>
        <mxCell id="BsZ0_2oqFfzsW1XxFSp0-15" style="edgeStyle=orthogonalEdgeStyle;rounded=0;orthogonalLoop=1;jettySize=auto;html=1;entryX=0.25;entryY=1;entryDx=0;entryDy=0;" parent="1" source="BsZ0_2oqFfzsW1XxFSp0-5" target="BsZ0_2oqFfzsW1XxFSp0-5" edge="1">
          <mxGeometry relative="1" as="geometry">
            <Array as="points">
              <mxPoint x="847" y="410" />
              <mxPoint x="807" y="410" />
            </Array>
          </mxGeometry>
        </mxCell>
        <mxCell id="BsZ0_2oqFfzsW1XxFSp0-16" value="&lt;i style=&quot;&quot;&gt;muestra de 100&lt;/i&gt;&lt;div&gt;&lt;i style=&quot;&quot;&gt;entrenamientos&lt;/i&gt;&lt;/div&gt;" style="text;html=1;align=center;verticalAlign=middle;resizable=0;points=[];autosize=1;strokeColor=none;fillColor=none;" parent="1" vertex="1">
          <mxGeometry x="845" y="363" width="110" height="40" as="geometry" />
        </mxCell>
        <mxCell id="BsZ0_2oqFfzsW1XxFSp0-18" value="&lt;i&gt;mejores parámetros&lt;/i&gt;&lt;div&gt;&lt;i&gt;de inicialización&lt;/i&gt;&lt;/div&gt;&lt;div&gt;&lt;i&gt;encontrados&lt;/i&gt;&lt;/div&gt;" style="text;html=1;align=center;verticalAlign=middle;resizable=0;points=[];autosize=1;strokeColor=none;fillColor=none;" parent="1" vertex="1">
          <mxGeometry x="920" y="260" width="130" height="60" as="geometry" />
        </mxCell>
        <mxCell id="BsZ0_2oqFfzsW1XxFSp0-20" value="comparación" style="rounded=0;whiteSpace=wrap;html=1;fillColor=#d5e8d4;strokeColor=#82b366;" parent="1" vertex="1">
          <mxGeometry x="1210" y="210" width="160" height="40" as="geometry" />
        </mxCell>
        <mxCell id="BsZ0_2oqFfzsW1XxFSp0-25" value="&lt;i&gt;matriz de confusión y&lt;/i&gt;&lt;div&gt;&lt;i&gt;accuracy&amp;nbsp;&lt;/i&gt;&lt;/div&gt;&lt;div&gt;&lt;br&gt;&lt;/div&gt;" style="text;html=1;align=center;verticalAlign=middle;resizable=0;points=[];autosize=1;strokeColor=none;fillColor=none;" parent="1" vertex="1">
          <mxGeometry x="1200" y="85" width="140" height="60" as="geometry" />
        </mxCell>
        <mxCell id="BsZ0_2oqFfzsW1XxFSp0-28" style="edgeStyle=orthogonalEdgeStyle;rounded=0;orthogonalLoop=1;jettySize=auto;html=1;" parent="1" source="BsZ0_2oqFfzsW1XxFSp0-7" target="BsZ0_2oqFfzsW1XxFSp0-20" edge="1">
          <mxGeometry relative="1" as="geometry">
            <Array as="points">
              <mxPoint x="1340" y="150" />
            </Array>
          </mxGeometry>
        </mxCell>
        <mxCell id="BsZ0_2oqFfzsW1XxFSp0-30" style="edgeStyle=orthogonalEdgeStyle;rounded=0;orthogonalLoop=1;jettySize=auto;html=1;entryX=0.75;entryY=1;entryDx=0;entryDy=0;" parent="1" source="BsZ0_2oqFfzsW1XxFSp0-6" target="BsZ0_2oqFfzsW1XxFSp0-20" edge="1">
          <mxGeometry relative="1" as="geometry" />
        </mxCell>
        <mxCell id="BsZ0_2oqFfzsW1XxFSp0-33" value="&lt;i&gt;matriz de confusión y&amp;nbsp;&lt;/i&gt;&lt;div&gt;&lt;i&gt;accuracy&amp;nbsp;&lt;/i&gt;&lt;/div&gt;&lt;div&gt;&lt;br&gt;&lt;/div&gt;" style="text;html=1;align=center;verticalAlign=middle;resizable=0;points=[];autosize=1;strokeColor=none;fillColor=none;" parent="1" vertex="1">
          <mxGeometry x="1210" y="320" width="140" height="60" as="geometry" />
        </mxCell>
        <mxCell id="BsZ0_2oqFfzsW1XxFSp0-34" value="&lt;i&gt;Preparación&lt;/i&gt;&lt;div&gt;&lt;i&gt;de datos&lt;/i&gt;&lt;/div&gt;&lt;div&gt;&lt;i&gt;específica&lt;/i&gt;&lt;/div&gt;" style="text;html=1;align=center;verticalAlign=middle;resizable=0;points=[];autosize=1;strokeColor=none;fillColor=none;" parent="1" vertex="1">
          <mxGeometry x="530" y="110" width="90" height="60" as="geometry" />
        </mxCell>
        <mxCell id="BsZ0_2oqFfzsW1XxFSp0-35" value="&lt;i&gt;Preparación&lt;/i&gt;&lt;div&gt;&lt;i&gt;de datos&lt;/i&gt;&lt;/div&gt;&lt;div&gt;&lt;i&gt;específica&lt;/i&gt;&lt;/div&gt;" style="text;html=1;align=center;verticalAlign=middle;resizable=0;points=[];autosize=1;strokeColor=none;fillColor=none;" parent="1" vertex="1">
          <mxGeometry x="480" y="320" width="90" height="60" as="geometry" />
        </mxCell>
      </root>
    </mxGraphModel>
  </diagram>
</mxfile>
